<svg xmlns="http://www.w3.org/2000/svg" viewBox="0 0 1200 800" width="1200" height="800"><path fill="#FFF" d="M0 0h1200v800H0z"/><g transform="translate(349.0 120.0) rotate(0.0 251.0 280.0) scale(0.3975607824503049 0.3978060993620185)"><svg width="1262.7" height="1407.721" viewBox="0 0 1262.7 1407.721"><path d="M762.444 460.87 215.05 1399.53c-4.591 7.872-14.694 10.532-22.566 5.941s-10.532-14.694-5.941-22.566l.123-.207 561.049-930.563a8.562 8.562 0 0 1 11.754-2.912c4.012 2.419 5.325 7.613 2.975 11.647z"/><path d="M342.161 873.11a5 5 0 0 1-4.279-7.58c.441-.732 44.898-74.156 112.296-151.814 39.64-45.674 79.37-83.895 118.087-113.6 48.646-37.323 95.879-61.272 140.389-71.182a5 5 0 1 1 2.174 9.76c-43.057 9.587-88.952 32.904-136.409 69.304-38.171 29.277-77.395 67.011-116.584 112.152-66.861 77.018-110.949 149.812-111.386 150.539a5 5 0 0 1-4.288 2.421z" fill="#AF7C41"/><path d="M151.21 721.932a5 5 0 0 1-3.852-8.184c.628-.761 64.013-76.764 164.553-137.099 59.153-35.498 119.448-58.76 179.212-69.14 74.844-13 148.999-5.72 220.406 21.637a4.999 4.999 0 0 1 2.88 6.458 4.998 4.998 0 0 1-6.458 2.88c-69.646-26.682-141.965-33.798-214.948-21.152-58.513 10.139-117.624 32.929-175.69 67.738-99.151 59.438-161.627 134.299-162.247 135.049a4.993 4.993 0 0 1-3.856 1.813z" fill="#AF7C41"/><path d="M592.728 1021.696a5 5 0 0 1-4.314-7.521c.428-.732 43.154-74.334 78.66-169.946 20.811-56.039 35.105-108.556 42.484-156.092 9.175-59.102 7.62-110.556-4.622-152.935a5 5 0 1 1 9.607-2.775c12.654 43.809 14.297 96.741 4.883 157.328-7.493 48.221-21.972 101.415-43.034 158.106-35.812 96.39-78.912 170.617-79.343 171.356a4.995 4.995 0 0 1-4.321 2.479z" fill="#AF7C41"/><path d="M816.977 1116.73a5 5 0 0 1-4.643-6.855c.36-.903 36.079-91.633 40.671-207.143 2.69-67.647-5.667-130.445-24.838-186.65-23.913-70.105-64.847-130.147-121.666-178.458a5 5 0 1 1 6.478-7.618c58.256 49.533 100.214 111.109 124.709 183.015 19.559 57.418 28.07 121.483 25.297 190.414-4.714 117.16-40.999 209.232-41.364 210.149a5 5 0 0 1-4.644 3.146z" fill="#AF7C41"/><path d="M980.142 1173.149c-1.57 0-3.07-.741-4.021-2.03-.135-.182-14.174-18.873-40.641-34.828-35.317-21.29-74.866-27.902-117.552-19.653a4.999 4.999 0 0 1-5.567-2.992c-.194-.461-20.624-47.512-91.664-80.914-67.785-31.871-125.677-11.546-126.254-11.338-1.42.514-3 .361-4.292-.42a4.999 4.999 0 0 1-2.371-3.6c-.024-.173-2.67-18.293-15.376-42.143-11.699-21.962-34.589-53.444-77.201-78.719a.298.298 0 0 0-.024-.014l-.75-.445c-23.528-13.952-61.059-30.489-106.127-29.994-27.021.292-44.191 6.662-44.361 6.727a5 5 0 0 1-4.296-.362 5.002 5.002 0 0 1-2.421-3.565c-.092-.6-10.028-61.146-70.508-105.336-63.385-46.312-114.47-41.67-114.978-41.617a5.007 5.007 0 0 1-5.285-3.45c-13.237-41.41-38.01-72.941-73.631-93.718-26.695-15.57-49.829-18.923-50.06-18.956a5.008 5.008 0 0 1-4.039-3.314 4.998 4.998 0 0 1 1.115-5.102c.752-.783 18.804-19.465 52.143-44.077 30.709-22.67 80.662-54.738 144.237-78.768 71.515-27.031 145.331-38.594 219.392-34.366 92.506 5.28 185.596 35.345 276.684 89.36s162.121 121.274 211.127 199.911c39.235 62.958 64.497 133.272 75.083 208.989 9.411 67.311 5.234 126.523.073 164.343-5.603 41.059-13.336 65.86-13.663 66.896a4.997 4.997 0 0 1-4.772 3.495zm-127.943-69.87c38.757 0 68.826 12.554 88.825 24.68 17.68 10.719 29.982 22.403 36.807 29.772 6.976-27.171 25.45-113.47 10.709-218.344-10.438-74.256-35.25-143.193-73.748-204.898-48.146-77.167-117.993-143.236-207.602-196.374-89.696-53.189-181.261-82.79-272.153-87.978-72.653-4.147-145.088 7.203-215.287 33.736-98.977 37.412-165.619 94.861-186.064 113.983 9.739 2.453 25.895 7.643 43.784 18.017 25.554 14.818 59.417 43.403 77.291 95.858 13.857-.35 60.825 2.049 117.852 43.715 53.604 39.165 69.396 89.396 73.346 106.22 7.468-2.099 22.067-5.337 41.73-5.602 26.258-.351 67.012 4.804 111.839 31.386l.75.445c24.742 14.672 58.911 40.995 81.186 83.077 9.199 17.38 13.36 31.744 15.101 39.304 16.658-4.605 68.307-14.842 128.385 13.405 63.911 30.05 88.538 70.122 94.888 82.439 11.371-1.973 22.166-2.841 32.361-2.841z" fill="#AF7C41"/><g clip-rule="evenodd" fill="#265365" fill-rule="evenodd"><path d="m490.001 356.896-.281.619c-6.753 3.399-62.671 36.397-73.468 59.88-10.399 22.605-5.166 46.42 20.255 58.011 25.37 11.567 46.767-.043 56.984-22.794 10.616-23.628-1.256-87.534-3.154-94.815l.281-.619-.346.216-.065-.403zm675.85 156.935-.281.619c-6.753 3.399-62.671 36.397-73.468 59.88-10.399 22.605-5.166 46.42 20.255 58.011 25.37 11.567 46.767-.043 56.984-22.794 10.616-23.628-1.256-87.534-3.154-94.815l.281-.619-.346.216-.065-.403zM505.864 0l-.281.619c-6.753 3.399-62.671 36.397-73.468 59.88-10.399 22.605-5.166 46.42 20.255 58.011 25.37 11.567 46.767-.043 56.984-22.794C519.97 72.088 508.098 8.182 506.2.901l.281-.619-.346.216-.065-.403zm748.987 955.397-.281.619c-6.753 3.399-62.671 36.397-73.468 59.88-10.399 22.605-5.166 46.42 20.255 58.011 25.37 11.567 46.767-.043 56.984-22.794 10.616-23.628-1.256-87.534-3.154-94.815l.281-.619-.346.216-.065-.403zM767.099 254.74l-.192.423c-4.615 2.323-42.826 24.872-50.204 40.918-7.106 15.447-3.53 31.721 13.841 39.641 17.336 7.904 31.958-.03 38.94-15.576 7.254-16.146-.858-59.816-2.156-64.792l.192-.423-.237.148-.044-.276zm33.018 594.84-.192.422c-4.599 2.315-42.678 24.786-50.031 40.777-7.081 15.394-3.518 31.612 13.794 39.505 17.276 7.877 31.848-.03 38.805-15.522 7.229-16.09-.855-59.609-2.148-64.568l.192-.422-.236.147-.044-.275zM154.033 302.795l-.192.422c-4.599 2.315-42.678 24.786-50.031 40.777-7.081 15.394-3.518 31.612 13.794 39.505 17.276 7.877 31.848-.03 38.805-15.522 7.229-16.09-.855-59.609-2.148-64.568l.192-.422-.236.147-.044-.275zm901.615-112.499-.192.422c-4.599 2.315-42.678 24.786-50.031 40.777-7.082 15.394-3.518 31.612 13.794 39.505 17.276 7.877 31.848-.03 38.805-15.522 7.229-16.09-.855-59.609-2.148-64.568l.192-.422-.236.147-.044-.275zM78.781 179.723l-.281.619c-6.753 3.399-62.671 36.397-73.468 59.88-10.399 22.605-5.166 46.42 20.255 58.011 25.37 11.567 46.767-.043 56.984-22.794 10.616-23.628-1.256-87.534-3.154-94.815l.281-.619-.346.216-.065-.403z"/></g></svg></g></svg>